<?xml version="1.0" encoding="utf-8"?>
<!-- Generator: Adobe Illustrator 18.1.1, SVG Export Plug-In . SVG Version: 6.00 Build 0)  -->
<svg version="1.1" id="Layer_1" xmlns="http://www.w3.org/2000/svg" xmlns:xlink="http://www.w3.org/1999/xlink" x="0px" y="0px"
	 viewBox="0 316 582 162" enable-background="new 0 316 582 162" xml:space="preserve">
<g id="Layer_1_1_" display="none">
	
		<image display="inline" overflow="visible" enable-background="new    " width="584" height="355" xlink:href="../../../../../Downloads/WhatsApp Image 2020-10-08 at 12.00.50 AM.jpeg"  transform="matrix(1.0686 0 0 1.0686 -191.6524 278.9859)">
	</image>
</g>
<g id="Layer_2">
	<path fill="#5AB442" d="M22.1,339.9c0,0-58.5,155.2,76.9,129.3c0,0,38.3,15.3,102.4-13.1c0,0-124.8,48.2-171-49.5
		c0,0,14.4,19,24.8,27.4l-0.3-12.3l-8.3-0.3L80,391.4l33.7,29.7l-8.2,0.5v38.3h2c0,0,42.2-64.8-52.8-90.2
		C54.7,369.6,34.7,363.7,22.1,339.9z"/>
</g>
<g id="Layer_3">
	<path fill="#606468" d="M125.8,321.5c0,0-46.8,4.6-58.2,46.8c0,0,77.2,16.3,45.1,90.1c0,0,52.4-22.8,7.8-79.1
		C120.4,379.4,100.5,350.3,125.8,321.5z"/>
</g>
<g id="Layer_4">
	<path fill="#5AB442" d="M72.9,430.4h14.7v23.7c0,0-9.1-3.2-14.7-8.2V430.4z"/>
</g>
<g id="Layer_6">
	<path fill="#5AB442" d="M75.3,411.4c0,0-4,1.5,0,3.8h8.9c0,0,3.1-0.6,2.6-3.5s-3.8-2-3.8-2s-1.8-3.5-4.9-0.9
		C78.1,408.9,74.5,408,75.3,411.4z"/>
</g>
<g id="Layer_7">
	
		<text transform="matrix(1 0 0 1 234.7637 394.5755)" fill="#606468" font-family="'TwCenMT-CondensedExtraBold'" font-size="64.1173">HERBGIZ</text>
	
		<text transform="matrix(1 0 0 1 151.3857 435.8949)" fill="#5AB442" font-family="'TwCenMT-CondensedExtraBold'" font-size="38.4704">Grow Healthy, Eat Healthy</text>
</g>
</svg>
