<?xml version="1.0" encoding="utf-8"?>
<!-- Generator: Adobe Illustrator 18.1.1, SVG Export Plug-In . SVG Version: 6.00 Build 0)  -->
<svg version="1.1" xmlns="http://www.w3.org/2000/svg" xmlns:xlink="http://www.w3.org/1999/xlink" x="0px" y="0px"
	 viewBox="0 0 572.7 153" enable-background="new 0 0 572.7 153" xml:space="preserve">
<g id="Layer_1" display="none">
	
		<image display="inline" overflow="visible" width="584" height="355" xlink:href="../../../../../Downloads/WhatsApp Image 2020-10-08 at 12.00.50 AM.jpeg"  transform="matrix(1 0 0 1 -179.3453 -33)">
	</image>
</g>
<g id="Layer_2">
	<path fill="#5AB442" d="M20.7,24c0,0-54.7,145.2,72,121c0,0,35.8,14.3,95.8-12.3c0,0-116.8,45.1-160-46.3c0,0,13.5,17.8,23.2,25.6
		l-0.3-11.5l-7.8-0.3l31.3-28l31.5,27.8l-7.7,0.5v35.8h1.9c0,0,39.5-60.6-49.4-84.4C51.2,51.8,32.5,46.3,20.7,24z"/>
</g>
<g id="Layer_3">
	<path fill="#606468" d="M117.7,6.8c0,0-43.8,4.3-54.5,43.8c0,0,72.2,15.3,42.2,84.3c0,0,49-21.3,7.3-74C112.7,61,94,33.7,117.7,6.8
		z"/>
</g>
<g id="Layer_4">
	<path fill="#5AB442" d="M68.2,108.7H82v22.2c0,0-8.5-3-13.8-7.7V108.7z"/>
</g>
<g id="Layer_6">
	<path fill="#5AB442" d="M70.5,90.9c0,0-3.7,1.4,0,3.6h8.3c0,0,2.9-0.6,2.4-3.3s-3.6-1.9-3.6-1.9s-1.7-3.3-4.6-0.8
		C73.1,88.6,69.7,87.7,70.5,90.9z"/>
</g>
<g id="Layer_7">
	<text transform="matrix(1 0 0 1 288 86.4132)" fill="#606468" font-family="'TwCenMT-CondensedExtraBold'" font-size="60">HERBGIZ</text>
	<text transform="matrix(1 0 0 1 209.9762 125.0795)" fill="#5AB442" font-family="'TwCenMT-CondensedExtraBold'" font-size="36">Grow Healthy, Eat Healthy</text>
</g>
</svg>
